<svg xmlns="http://www.w3.org/2000/svg" viewBox="0 0 600 180" width="600" height="180" role="img" aria-label="Crochet meets code animation">
  <title>Crochet meets code</title>
  <defs>
    <linearGradient id="yarn" x1="0" y1="0" x2="1" y2="1">
      <stop offset="0" stop-color="#FF6FA5"/>
      <stop offset="1" stop-color="#E4405F"/>
    </linearGradient>
    <style>
      .mono { font-family: 'JetBrains Mono','Fira Code',Consolas,monospace; }
      .thread { stroke: url(#yarn); stroke-width: 3; fill: none; stroke-linecap: round; }
      .stitch { fill: none; stroke: url(#yarn); stroke-width: 3; stroke-linecap: round;
                stroke-dasharray: 26; stroke-dashoffset: 26;
                animation: draw 4.2s ease-in-out infinite; }
      .caret { fill: #E4405F; animation: blink 1s steps(1) infinite; }
      .label { fill: #9aa0a6; }
      .pink  { fill: #E4405F; }
      @keyframes draw  { 0% {stroke-dashoffset:26} 45%,100% {stroke-dashoffset:0} }
      @keyframes blink { 0%,50% {opacity:1} 51%,100% {opacity:0} }
      @keyframes spin  { to { transform: rotate(360deg); } }
      @keyframes bob   { 0%,100% {transform:translateY(0)} 50% {transform:translateY(-5px)} }
      @keyframes flow  { to { stroke-dashoffset: -40; } }
      .ball  { transform-box: fill-box; transform-origin: center; animation: spin 9s linear infinite; }
      .hook  { animation: bob 2.4s ease-in-out infinite; }
      .feed  { stroke: url(#yarn); stroke-width: 3; fill: none; stroke-linecap: round;
               stroke-dasharray: 8 6; animation: flow 1.2s linear infinite; }
    </style>
  </defs>

  <!-- comment header -->
  <text x="40" y="42" class="mono label" font-size="17">// a crochet pattern is just pseudocode</text>

  <!-- chain of stitches drawn along the baseline (left -> right) -->
  <g transform="translate(40,96)">
    <path class="stitch" d="M0 0 q13 -14 26 0"   style="animation-delay:0s"/>
    <path class="stitch" d="M26 0 q13 -14 26 0"  style="animation-delay:.3s"/>
    <path class="stitch" d="M52 0 q13 -14 26 0"  style="animation-delay:.6s"/>
    <path class="stitch" d="M78 0 q13 -14 26 0"  style="animation-delay:.9s"/>
    <path class="stitch" d="M104 0 q13 -14 26 0" style="animation-delay:1.2s"/>
    <path class="stitch" d="M130 0 q13 -14 26 0" style="animation-delay:1.5s"/>
    <path class="stitch" d="M156 0 q13 -14 26 0" style="animation-delay:1.8s"/>
    <path class="stitch" d="M182 0 q13 -14 26 0" style="animation-delay:2.1s"/>
  </g>

  <!-- yarn feed from the ball to the hook tip -->
  <path class="feed" d="M292 74 C 356 60, 436 112, 500 90"/>

  <!-- crochet hook (user's own asset), positioned by outer g, bobbing via inner g -->
  <g transform="translate(300,66) rotate(18) scale(2.4)">
    <g class="hook">
      <path d="M1.33375 20.4918C1.33465 20.6244 1.38819 20.7512 1.48259 20.8443C1.577 20.9374 1.70453 20.9893 1.83713 20.9884C1.96974 20.9875 2.09656 20.9339 2.18969 20.8395C2.28282 20.7451 2.33463 20.6176 2.33373 20.485C2.33373 20.485 2.33373 20.485 2.33373 20.485C2.33125 20.1195 2.32878 19.754 2.3263 19.3885C2.29087 14.164 2.25545 8.93941 2.22003 3.71485L2.21452 3.64418C2.03003 2.61814 2.17614 1.66824 1.57646 0.349659C1.495 0.238735 1.37555 0.0732763 1.08432 0.0105368C0.7922 -0.0393942 0.589323 0.0998179 0.492337 0.182699C0.287771 0.369194 0.22236 0.532503 0.15334 0.699458C0.00801133 1.09364 -0.016048 1.48299 0.00823593 1.89623C0.318056 1.6249 0.587248 1.34984 0.826175 1.12121C0.922065 1.02944 1.03077 0.939715 1.06545 0.938503C1.08437 0.932574 1.03409 0.99748 0.892129 0.978777C0.754945 0.948495 0.742884 0.895897 0.750818 0.913855C1.03267 1.51715 1.0746 2.75894 1.22556 3.79231L1.22005 3.72164C1.25547 8.94619 1.2909 14.1707 1.32632 19.3953C1.3288 19.7608 1.33128 20.1263 1.33375 20.4918Z" fill="#9a8686"/>
    </g>
  </g>

  <!-- ball of yarn -->
  <g transform="translate(530,92)">
    <g class="ball">
      <circle r="30" fill="url(#yarn)"/>
      <path d="M-26 -9 A30 30 0 0 1 21 -21"  class="thread" stroke="#fff" opacity=".45"/>
      <path d="M-21 16 A30 30 0 0 1 27 7"    class="thread" stroke="#fff" opacity=".45"/>
      <path d="M-30 4 A30 30 0 0 0 25 -16"   class="thread" stroke="#fff" opacity=".35"/>
      <path d="M-12 -27 A30 30 0 0 1 18 23"  class="thread" stroke="#fff" opacity=".3"/>
    </g>
  </g>

  <!-- code line with blinking caret -->
  <text x="40" y="152" class="mono pink" font-size="19">while (rows--) chain();</text>
  <rect x="262" y="137" width="10" height="18" class="caret"/>
</svg>
